<svg xmlns="http://www.w3.org/2000/svg" xmlns:xlink="http://www.w3.org/1999/xlink" width="500" zoomAndPan="magnify" viewBox="0 0 375 149.999998" height="200" preserveAspectRatio="xMidYMid meet" version="1.0"><defs><g/></defs><g fill="#4338ca" fill-opacity="1"><g transform="translate(12.281754, 117.399774)"><g><path d="M 39.984375 -92.25 C 44.890625 -92.25 49.679688 -91.535156 54.359375 -90.109375 C 59.046875 -88.679688 62.523438 -87.273438 64.796875 -85.890625 L 68.09375 -83.6875 L 59.75 -67.21875 C 59.09375 -67.65625 58.175781 -68.21875 57 -68.90625 C 55.832031 -69.601562 53.632812 -70.535156 50.40625 -71.703125 C 47.1875 -72.878906 44.1875 -73.46875 41.40625 -73.46875 C 37.96875 -73.46875 35.3125 -72.734375 33.4375 -71.265625 C 31.570312 -69.804688 30.640625 -67.832031 30.640625 -65.34375 C 30.640625 -64.101562 31.078125 -62.953125 31.953125 -61.890625 C 32.835938 -60.828125 34.335938 -59.691406 36.453125 -58.484375 C 38.578125 -57.273438 40.445312 -56.300781 42.0625 -55.5625 C 43.675781 -54.832031 46.164062 -53.738281 49.53125 -52.28125 C 55.382812 -49.789062 60.378906 -46.398438 64.515625 -42.109375 C 68.660156 -37.828125 70.734375 -32.976562 70.734375 -27.5625 C 70.734375 -22.363281 69.796875 -17.820312 67.921875 -13.9375 C 66.054688 -10.0625 63.492188 -7.023438 60.234375 -4.828125 C 56.984375 -2.628906 53.378906 -1.003906 49.421875 0.046875 C 45.460938 1.109375 41.179688 1.640625 36.578125 1.640625 C 32.617188 1.640625 28.734375 1.238281 24.921875 0.4375 C 21.117188 -0.363281 17.9375 -1.367188 15.375 -2.578125 C 12.8125 -3.785156 10.503906 -4.972656 8.453125 -6.140625 C 6.398438 -7.316406 4.898438 -8.304688 3.953125 -9.109375 L 2.53125 -10.328125 L 12.84375 -27.671875 C 13.726562 -26.941406 14.9375 -26.007812 16.46875 -24.875 C 18.007812 -23.738281 20.738281 -22.21875 24.65625 -20.3125 C 28.570312 -18.414062 32.03125 -17.46875 35.03125 -17.46875 C 43.75 -17.46875 48.109375 -20.429688 48.109375 -26.359375 C 48.109375 -27.597656 47.796875 -28.75 47.171875 -29.8125 C 46.546875 -30.875 45.445312 -31.9375 43.875 -33 C 42.300781 -34.0625 40.910156 -34.90625 39.703125 -35.53125 C 38.492188 -36.15625 36.515625 -37.109375 33.765625 -38.390625 C 31.023438 -39.671875 28.992188 -40.640625 27.671875 -41.296875 C 22.179688 -44.003906 17.9375 -47.390625 14.9375 -51.453125 C 11.9375 -55.515625 10.4375 -59.890625 10.4375 -64.578125 C 10.4375 -72.703125 13.4375 -79.34375 19.4375 -84.5 C 25.445312 -89.664062 32.296875 -92.25 39.984375 -92.25 Z M 39.984375 -92.25 "/></g></g></g><g fill="#4338ca" fill-opacity="1"><g transform="translate(91.789806, 117.399774)"><g><path d="M 54.796875 -18.671875 C 57.953125 -18.671875 61.007812 -19.144531 63.96875 -20.09375 C 66.9375 -21.050781 69.117188 -21.96875 70.515625 -22.84375 L 72.59375 -24.265625 L 81.375 -6.703125 C 81.082031 -6.484375 80.679688 -6.1875 80.171875 -5.8125 C 79.660156 -5.445312 78.46875 -4.769531 76.59375 -3.78125 C 74.726562 -2.800781 72.734375 -1.941406 70.609375 -1.203125 C 68.492188 -0.472656 65.710938 0.179688 62.265625 0.765625 C 58.828125 1.347656 55.28125 1.640625 51.625 1.640625 C 43.195312 1.640625 35.210938 -0.425781 27.671875 -4.5625 C 20.128906 -8.695312 14.050781 -14.390625 9.4375 -21.640625 C 4.832031 -28.890625 2.53125 -36.722656 2.53125 -45.140625 C 2.53125 -51.503906 3.882812 -57.613281 6.59375 -63.46875 C 9.300781 -69.332031 12.90625 -74.347656 17.40625 -78.515625 C 21.90625 -82.691406 27.15625 -86.023438 33.15625 -88.515625 C 39.164062 -91.003906 45.320312 -92.25 51.625 -92.25 C 57.476562 -92.25 62.875 -91.550781 67.8125 -90.15625 C 72.757812 -88.769531 76.257812 -87.382812 78.3125 -86 L 81.375 -83.90625 L 72.59375 -66.34375 C 72.082031 -66.78125 71.3125 -67.304688 70.28125 -67.921875 C 69.257812 -68.546875 67.210938 -69.367188 64.140625 -70.390625 C 61.066406 -71.421875 57.953125 -71.9375 54.796875 -71.9375 C 49.828125 -71.9375 45.363281 -71.128906 41.40625 -69.515625 C 37.445312 -67.910156 34.316406 -65.789062 32.015625 -63.15625 C 29.710938 -60.519531 27.957031 -57.679688 26.75 -54.640625 C 25.539062 -51.597656 24.9375 -48.503906 24.9375 -45.359375 C 24.9375 -38.472656 27.515625 -32.300781 32.671875 -26.84375 C 37.835938 -21.394531 45.210938 -18.671875 54.796875 -18.671875 Z M 54.796875 -18.671875 "/></g></g></g><g fill="#4338ca" fill-opacity="1"><g transform="translate(180.192979, 117.399774)"><g><path d="M 52.609375 -90.609375 L 89.1875 0 L 67 0 L 60.296875 -18.125 L 25.8125 -18.125 L 19.109375 0 L -3.078125 0 L 33.5 -90.609375 Z M 53.265625 -36.25 L 43.15625 -62.609375 L 42.9375 -62.609375 L 32.84375 -36.25 Z M 53.265625 -36.25 "/></g></g></g><g fill="#4338ca" fill-opacity="1"><g transform="translate(272.000466, 117.399774)"><g><path d="M 27.234375 -56.234375 L 27.234375 0 L 6.59375 0 L 6.59375 -90.609375 L 27.234375 -90.609375 L 63.265625 -34.375 L 63.484375 -34.375 L 63.484375 -90.609375 L 84.125 -90.609375 L 84.125 0 L 63.484375 0 L 27.453125 -56.234375 Z M 27.234375 -56.234375 "/></g></g></g></svg>