<svg xmlns="http://www.w3.org/2000/svg" xmlns:xlink="http://www.w3.org/1999/xlink" width="500" zoomAndPan="magnify" viewBox="0 0 375 149.999998" height="200" preserveAspectRatio="xMidYMid meet" version="1.0"><defs><g/></defs><g fill="#4338ca" fill-opacity="1"><g transform="translate(15.328654, 108.749996)"><g><path d="M 1.839844 -46.1875 C 2.128906 -40.378906 5.035156 -35.34375 10.167969 -30.890625 C 15.785156 -26.242188 24.789062 -23.820312 36.988281 -23.820312 L 43.769531 -23.820312 C 48.027344 -23.722656 50.933594 -23.433594 52.484375 -22.753906 C 53.742188 -22.175781 54.324219 -21.304688 54.417969 -20.335938 C 54.417969 -18.6875 53.839844 -17.527344 52.578125 -16.65625 C 51.03125 -15.589844 48.222656 -15.007812 44.058594 -14.914062 L 38.441406 -14.914062 C 34.277344 -15.007812 31.277344 -15.394531 29.824219 -16.074219 C 28.273438 -16.753906 27.5 -17.527344 27.402344 -18.300781 C 27.308594 -19.171875 26.726562 -20.238281 25.660156 -21.398438 C 24.5 -22.464844 22.464844 -23.046875 19.558594 -23.046875 L 9.78125 -23.046875 C 6.679688 -23.046875 4.648438 -22.464844 3.484375 -21.398438 C 2.324219 -20.238281 1.839844 -18.203125 1.839844 -15.105469 C 1.839844 -9.199219 4.648438 -3.875 10.167969 0.871094 C 15.785156 5.617188 24.789062 7.941406 36.988281 7.941406 L 45.316406 7.941406 C 57.710938 7.941406 66.621094 5.617188 72.140625 0.871094 C 77.273438 -3.484375 79.984375 -11.136719 80.371094 -22.175781 L 80.371094 -24.984375 C 79.984375 -30.308594 77.273438 -35.246094 72.042969 -39.605469 C 66.523438 -44.347656 57.519531 -46.671875 45.316406 -46.671875 L 38.441406 -46.671875 C 34.277344 -46.769531 31.277344 -47.15625 29.824219 -47.835938 C 28.566406 -48.320312 27.886719 -49.191406 27.886719 -50.257812 C 27.886719 -51.902344 28.566406 -53.257812 29.824219 -54.226562 C 31.179688 -55.195312 34.085938 -55.679688 38.25 -55.777344 L 43.769531 -55.777344 C 48.027344 -55.679688 50.933594 -55.386719 52.484375 -54.710938 C 54.03125 -54.128906 54.710938 -53.257812 54.808594 -52.386719 C 54.902344 -51.515625 55.484375 -50.449219 56.648438 -49.382812 C 57.808594 -48.222656 59.746094 -47.640625 62.652344 -47.640625 L 72.527344 -47.640625 C 75.53125 -47.640625 77.660156 -48.222656 78.726562 -49.382812 C 79.886719 -50.449219 80.46875 -52.578125 80.46875 -55.582031 C 80.46875 -61.585938 77.660156 -66.8125 72.042969 -71.558594 C 66.523438 -76.304688 57.519531 -78.726562 45.316406 -78.726562 L 36.988281 -78.726562 C 24.59375 -78.726562 15.6875 -76.304688 10.070312 -71.558594 C 4.9375 -67.105469 2.128906 -59.359375 1.839844 -48.320312 Z M 1.839844 -46.1875 "/></g></g></g><g fill="#4338ca" fill-opacity="1"><g transform="translate(102.671485, 108.749996)"><g><path d="M 27.5 -29.628906 L 27.5 -41.445312 C 27.5 -45.898438 28.273438 -48.804688 29.824219 -50.449219 C 31.179688 -51.902344 34.085938 -52.675781 38.25 -52.773438 L 43.769531 -52.773438 C 48.027344 -52.675781 50.933594 -52.097656 52.484375 -50.933594 C 54.03125 -49.773438 54.710938 -48.125 54.710938 -46.1875 C 54.808594 -43.089844 55.484375 -41.058594 56.648438 -39.894531 C 57.808594 -38.734375 59.746094 -38.25 62.652344 -38.25 L 72.527344 -38.25 C 75.53125 -38.25 77.660156 -38.734375 78.726562 -39.894531 C 79.886719 -41.058594 80.46875 -43.089844 80.46875 -46.1875 C 80.46875 -58.390625 77.660156 -66.8125 72.042969 -71.558594 C 66.523438 -76.304688 57.519531 -78.726562 45.316406 -78.726562 L 36.988281 -78.726562 C 24.59375 -78.726562 15.6875 -76.304688 10.070312 -71.558594 C 4.550781 -66.8125 1.839844 -58.292969 1.839844 -45.800781 L 1.839844 -24.984375 C 1.839844 -12.589844 4.550781 -4.164062 10.070312 0.484375 C 15.6875 5.132812 24.59375 7.457031 36.988281 7.554688 L 45.316406 7.554688 C 57.519531 7.554688 66.523438 5.230469 72.042969 0.582031 C 77.660156 -4.066406 80.46875 -12.589844 80.46875 -24.984375 C 80.46875 -27.695312 79.886719 -29.824219 78.726562 -30.988281 C 77.660156 -32.246094 75.53125 -32.921875 72.527344 -32.921875 L 62.652344 -32.921875 C 59.746094 -32.921875 57.808594 -32.246094 56.550781 -30.988281 C 55.292969 -29.824219 54.710938 -27.695312 54.710938 -24.984375 C 54.613281 -22.753906 53.839844 -21.207031 52.386719 -20.042969 C 50.933594 -18.882812 48.027344 -18.300781 43.769531 -18.300781 L 38.25 -18.300781 C 34.085938 -18.300781 31.179688 -19.074219 29.824219 -20.722656 C 28.273438 -22.269531 27.5 -25.273438 27.5 -29.628906 Z M 27.5 -29.628906 "/></g></g></g><g fill="#4338ca" fill-opacity="1"><g transform="translate(190.014316, 108.749996)"><g><path d="M 46.867188 -78.917969 L 35.34375 -78.917969 C 31.859375 -79.015625 29.535156 -78.53125 28.273438 -77.273438 C 26.917969 -76.011719 25.855469 -73.882812 24.886719 -70.785156 L 2.128906 -5.714844 C 1.355469 -3.484375 0.773438 -1.550781 0.484375 0.195312 C 0.386719 2.710938 1.066406 4.648438 2.226562 5.90625 C 3.484375 6.972656 5.617188 7.554688 8.519531 7.648438 L 15.785156 7.648438 C 18.6875 7.746094 20.914062 7.164062 22.175781 6.003906 C 23.433594 4.746094 24.5 2.710938 25.273438 0.195312 L 27.695312 -6.875 L 54.515625 -6.875 L 57.035156 0.195312 C 57.808594 2.710938 58.777344 4.746094 60.132812 6.003906 C 61.390625 7.164062 63.523438 7.746094 66.523438 7.648438 L 73.785156 7.648438 C 76.691406 7.554688 78.820312 6.972656 80.082031 5.90625 C 81.339844 4.648438 81.921875 2.710938 81.824219 0.195312 C 81.53125 -1.550781 80.953125 -3.484375 80.082031 -5.714844 L 57.421875 -70.785156 C 56.453125 -73.882812 55.292969 -76.011719 54.128906 -77.273438 C 52.773438 -78.53125 50.449219 -79.015625 46.867188 -78.917969 Z M 41.152344 -45.511719 L 46.578125 -29.824219 L 35.632812 -29.824219 Z M 41.152344 -45.511719 "/></g></g></g><g fill="#4338ca" fill-opacity="1"><g transform="translate(277.357142, 108.749996)"><g><path d="M 80.46875 -70.492188 C 80.371094 -73.496094 79.691406 -75.625 78.53125 -76.886719 C 77.175781 -78.144531 74.753906 -78.726562 71.269531 -78.628906 L 64.394531 -78.628906 C 61.488281 -78.53125 59.359375 -77.949219 58.195312 -76.789062 C 56.9375 -75.53125 56.257812 -73.496094 56.355469 -70.492188 L 56.355469 -35.148438 L 26.242188 -74.269531 C 25.757812 -74.851562 24.886719 -75.820312 23.722656 -76.980469 C 22.5625 -78.144531 20.335938 -78.726562 16.847656 -78.628906 L 9.972656 -78.628906 C 6.972656 -78.53125 4.9375 -77.949219 3.679688 -76.789062 C 2.421875 -75.53125 1.839844 -73.496094 1.9375 -70.492188 L 1.9375 0.195312 C 2.035156 2.710938 2.613281 4.746094 3.96875 6.003906 C 5.230469 7.164062 7.359375 7.746094 10.265625 7.648438 L 18.011719 7.648438 C 20.914062 7.554688 23.046875 6.972656 24.304688 5.90625 C 25.5625 4.648438 26.144531 2.710938 26.046875 0.195312 L 26.046875 -35.246094 L 55.96875 3.390625 C 56.648438 4.261719 57.519531 5.230469 58.582031 6.199219 C 59.746094 7.261719 61.875 7.746094 64.78125 7.648438 L 72.429688 7.648438 C 75.335938 7.554688 77.5625 6.972656 78.726562 5.90625 C 79.984375 4.648438 80.566406 2.710938 80.46875 0.195312 Z M 80.46875 -70.492188 "/></g></g></g></svg>