<svg xmlns="http://www.w3.org/2000/svg" xmlns:xlink="http://www.w3.org/1999/xlink" width="500" zoomAndPan="magnify" viewBox="0 0 375 149.999998" height="200" preserveAspectRatio="xMidYMid meet" version="1.0"><defs><g/></defs><g fill="#4338ca" fill-opacity="1"><g transform="translate(10.990202, 123.706381)"><g><path d="M 6.65625 -91.4375 L 39.34375 -91.4375 C 48.132812 -91.4375 55.300781 -89.085938 60.84375 -84.390625 C 66.382812 -79.703125 69.15625 -73 69.15625 -64.28125 C 69.15625 -57.550781 67.472656 -51.914062 64.109375 -47.375 C 60.753906 -42.832031 56.191406 -39.640625 50.421875 -37.796875 L 81.90625 0 L 55.421875 0 L 27.484375 -36.125 L 27.484375 0 L 6.65625 0 Z M 27.484375 -50.875 L 29.921875 -50.875 C 31.847656 -50.875 33.472656 -50.910156 34.796875 -50.984375 C 36.128906 -51.054688 37.644531 -51.3125 39.34375 -51.75 C 41.039062 -52.195312 42.40625 -52.828125 43.4375 -53.640625 C 44.476562 -54.453125 45.367188 -55.632812 46.109375 -57.1875 C 46.847656 -58.738281 47.21875 -60.625 47.21875 -62.84375 C 47.21875 -65.0625 46.847656 -66.941406 46.109375 -68.484375 C 45.367188 -70.035156 44.476562 -71.21875 43.4375 -72.03125 C 42.40625 -72.84375 41.039062 -73.472656 39.34375 -73.921875 C 37.644531 -74.367188 36.128906 -74.628906 34.796875 -74.703125 C 33.472656 -74.773438 31.847656 -74.8125 29.921875 -74.8125 L 27.484375 -74.8125 Z M 27.484375 -50.875 "/></g></g></g><g fill="#4338ca" fill-opacity="1"><g transform="translate(95.882606, 123.706381)"><g><path d="M 2.546875 -45.765625 C 2.546875 -58.992188 7.050781 -70.1875 16.0625 -79.34375 C 25.082031 -88.507812 35.945312 -93.09375 48.65625 -93.09375 C 61.4375 -93.09375 72.296875 -88.53125 81.234375 -79.40625 C 90.171875 -70.28125 94.640625 -59.066406 94.640625 -45.765625 C 94.640625 -32.398438 90.242188 -21.15625 81.453125 -12.03125 C 72.660156 -2.90625 61.726562 1.65625 48.65625 1.65625 C 35.28125 1.65625 24.25 -2.863281 15.5625 -11.90625 C 6.882812 -20.957031 2.546875 -32.242188 2.546875 -45.765625 Z M 25.046875 -45.765625 C 25.046875 -40.960938 25.785156 -36.582031 27.265625 -32.625 C 28.742188 -28.675781 31.328125 -25.335938 35.015625 -22.609375 C 38.710938 -19.878906 43.257812 -18.515625 48.65625 -18.515625 C 56.414062 -18.515625 62.269531 -21.171875 66.21875 -26.484375 C 70.175781 -31.804688 72.15625 -38.234375 72.15625 -45.765625 C 72.15625 -53.234375 70.140625 -59.644531 66.109375 -65 C 62.078125 -70.351562 56.257812 -73.03125 48.65625 -73.03125 C 41.113281 -73.03125 35.289062 -70.351562 31.1875 -65 C 27.09375 -59.644531 25.046875 -53.234375 25.046875 -45.765625 Z M 25.046875 -45.765625 "/></g></g></g><g fill="#4338ca" fill-opacity="1"><g transform="translate(198.617941, 123.706381)"><g><path d="M 27.484375 -91.4375 L 27.484375 -18.28125 L 58.953125 -18.28125 L 58.953125 0 L 6.65625 0 L 6.65625 -91.4375 Z M 27.484375 -91.4375 "/></g></g></g><g fill="#4338ca" fill-opacity="1"><g transform="translate(266.775693, 123.706381)"><g><path d="M 2.546875 -45.765625 C 2.546875 -58.992188 7.050781 -70.1875 16.0625 -79.34375 C 25.082031 -88.507812 35.945312 -93.09375 48.65625 -93.09375 C 61.4375 -93.09375 72.296875 -88.53125 81.234375 -79.40625 C 90.171875 -70.28125 94.640625 -59.066406 94.640625 -45.765625 C 94.640625 -32.398438 90.242188 -21.15625 81.453125 -12.03125 C 72.660156 -2.90625 61.726562 1.65625 48.65625 1.65625 C 35.28125 1.65625 24.25 -2.863281 15.5625 -11.90625 C 6.882812 -20.957031 2.546875 -32.242188 2.546875 -45.765625 Z M 25.046875 -45.765625 C 25.046875 -40.960938 25.785156 -36.582031 27.265625 -32.625 C 28.742188 -28.675781 31.328125 -25.335938 35.015625 -22.609375 C 38.710938 -19.878906 43.257812 -18.515625 48.65625 -18.515625 C 56.414062 -18.515625 62.269531 -21.171875 66.21875 -26.484375 C 70.175781 -31.804688 72.15625 -38.234375 72.15625 -45.765625 C 72.15625 -53.234375 70.140625 -59.644531 66.109375 -65 C 62.078125 -70.351562 56.257812 -73.03125 48.65625 -73.03125 C 41.113281 -73.03125 35.289062 -70.351562 31.1875 -65 C 27.09375 -59.644531 25.046875 -53.234375 25.046875 -45.765625 Z M 25.046875 -45.765625 "/></g></g></g></svg>